<?xml version="1.0" encoding="utf-8"?>

<svg version="1.1" id="Large_Preview" xmlns="http://www.w3.org/2000/svg" xmlns:xlink="http://www.w3.org/1999/xlink" x="0px" y="0px" viewBox="0 0 432 432" style="enable-background:new 0 0 432 432;" xml:space="preserve">




<g>
&#x9;<path class="st0" fill="#80C241" d="M329.4,314.1c-15,0-27.3-12.2-27.3-27.3s12.2-27.3,27.3-27.3c15,0,27.3,12.2,27.3,27.3&#xA;&#x9;&#x9;S344.4,314.1,329.4,314.1z M329.4,271.6c-8.4,0-15.3,6.8-15.3,15.3s6.8,15.3,15.3,15.3s15.3-6.8,15.3-15.3S337.8,271.6,329.4,271.6&#xA;&#x9;&#x9;z"></path>
&#x9;<path class="st0" fill="#80C241" d="M109.7,314.1c-15,0-27.3-12.2-27.3-27.3s12.2-27.3,27.3-27.3c15,0,27.3,12.2,27.3,27.3&#xA;&#x9;&#x9;S124.7,314.1,109.7,314.1z M109.7,271.6c-8.4,0-15.3,6.8-15.3,15.3s6.8,15.3,15.3,15.3c8.4,0,15.3-6.8,15.3-15.3&#xA;&#x9;&#x9;S118.1,271.6,109.7,271.6z"></path>
&#x9;<g>
&#x9;&#x9;<polygon class="st1" fill="#45BBEC" points="264.5,117.9 47,117.9 47,292.9 73.4,292.9 73.4,280.9 59,280.9 59,129.9 252.5,129.9 252.5,280.9 &#xA;&#x9;&#x9;&#x9;146,280.9 146,292.9 258.5,292.9 264.5,292.9 293.1,292.9 293.1,280.9 264.5,280.9 &#x9;&#x9;"></polygon>
&#x9;&#x9;<path class="st1" fill="#45BBEC" d="M379.6,237.1c-0.8-1.1-1.8-2.3-2.8-3.8c-2.6-3.6-19-19.4-27.6-25.6c-2-3.7-3.8-7-5.6-10.2&#xA;&#x9;&#x9;&#x9;c-6.9-12.8-12-22.2-22.8-34c-6.9-30.4-29.6-38.6-40.9-38.6l0,12c0.9,0,19.8,0.6,27.7,23.4h-27.6v12h32.8&#xA;&#x9;&#x9;&#x9;c9.4,10.3,13.8,18.6,20.4,30.8c2,3.6,4,7.4,6.4,11.6l0.7,1.3l1.2,0.8c7.4,4.9,23.9,21,25.8,23.4c1.2,1.7,2.3,3,3.1,4.1&#xA;&#x9;&#x9;&#x9;c2.8,3.6,2.8,3.7,2.8,8.1v28.3h-7.3v12H385v-40.3C385,244.3,383.3,241.9,379.6,237.1z"></path>
&#x9;</g>
&#x9;<polygon class="st0" fill="#80C241" points="325.8,228.6 290.1,224.7 274.5,194.7 285.1,189.2 297.8,213.5 327.1,216.7 &#x9;"></polygon>
</g>
</svg>